<svg xmlns="http://www.w3.org/2000/svg" viewBox="-195 294.1 220 205.9"><g fill="#FFF"><path d="M-100.96 487.4l-45.133-45.134-31.772-.163c-4.4 0-7.007-2.607-7.007-6.517v-77.069c0-3.421 2.607-6.354 6.355-6.354l32.587-.163 45.948-45.948c4.073-4.073 12.872-1.63 12.872 6.029v170.105c-.163 8.798-9.45 9.613-13.85 5.213zm88.637-183.303h.326c0 .163 0 .163 1.466.163 1.304.489 1.304.489 1.956.815l1.466.977.815.815c.326.652.651.977 1.14 1.63 1.467 3.095 1.467 3.095 3.748 7.983.977 2.444 1.955 4.888 3.096 7.332 1.466 4.074 1.466 4.074 3.095 8.636 1.467 4.888 1.467 4.888 3.096 10.265.489 1.955.978 4.073 1.467 6.191.488 2.444.977 4.725 1.466 7.006.489 2.933.978 5.703 1.466 8.636.815 5.214.815 5.214 1.467 11.894.326 4.237.326 4.237.814 10.265l.163 4.725v12.058c-.651 10.265-.651 10.265-.977 14.5-.815 6.681-.815 6.681-1.467 12.058-.814 4.562-.814 4.562-2.28 12.383-.652 2.281-.978 4.4-1.467 6.68-1.467 5.703-1.467 5.703-3.096 10.917-.652 1.467-.978 3.096-1.466 4.725-.978 2.77-2.119 5.377-3.096 8.147-.815 1.793-1.467 3.585-2.281 5.377-.978 2.281-2.118 4.236-3.096 6.518l-.978 1.466c-.163.326-.326.489-.651.815a7.234 7.234 0 0 0-1.793 1.303c-.651.326-1.303.652-1.955.815-.489.163-.978.163-1.466.163-.49 0-.978-.163-1.467-.163-.814-.163-.814-.163-1.955-.652-.978-.489-.978-.489-1.792-.978-.49-.651-.978-.977-1.467-1.629-.326-.489-.651-.978-.814-1.466l-.652-1.956v-2.28c.163-.49.163-.815.326-1.304.814-1.792.814-1.792 3.747-8.31.978-2.607 1.956-5.214 3.096-7.658 1.466-4.4 1.466-4.4 3.096-9.124 1.466-5.377 1.466-5.377 3.096-11.406 1.466-7.006 1.466-7.006 2.28-11.242.815-4.888.815-4.888 1.467-10.591.163-2.607.489-5.214.815-7.984.163-2.118.326-4.236.326-6.191.163-2.282.163-4.563.163-6.68v-5.378c-.163-1.955-.163-4.073-.163-6.028-.163-3.422-.163-3.422-.978-12.22-.326-1.956-.652-4.074-.815-6.192-.651-3.096-.977-6.192-1.466-9.287-.815-3.748-.815-3.748-2.281-10.591-1.467-5.703-1.467-5.703-3.096-10.917-.652-1.466-.978-3.096-1.466-4.562-.815-2.118-1.467-4.236-2.281-6.192-.815-1.792-1.467-3.584-2.282-5.377a175.814 175.814 0 0 1-3.747-7.983c-.163-.652-.326-1.14-.326-1.793v-1.792c.163-.489.163-.978.326-1.466.652-1.304.652-1.304.978-2.281.325-.652.814-.978 1.303-1.467.489-.326.978-.652 1.304-.977.814-.326.814-.326 1.792-.652.652-.326 1.303-.489 1.955-.489z"/><path d="M-39.044 477.786c-1.467-.326-1.467-.326-2.607-.814-.652-.326-1.14-.815-1.793-.978-1.14-1.14-1.14-1.14-1.629-1.792-.326-.652-.652-1.304-.815-1.793-.163-.651-.326-1.14-.326-1.792v-1.63c0-.325.163-.814.163-1.14.163-.326.163-.814.326-1.14.978-2.281 1.956-4.237 3.096-6.518 1.466-3.747 1.466-3.747 3.096-7.82.489-1.467.977-2.934 1.466-4.563.815-2.607 1.467-5.214 2.281-7.82 1.467-6.355 1.467-6.355 2.281-10.103.49-3.096.978-6.028 1.467-9.124.815-6.355.815-6.355 1.14-10.428.163-2.933.326-5.866.49-8.636v-9.287c-.164-2.607-.327-5.051-.327-7.658-.163-1.466-.326-2.933-.326-4.562-.814-6.355-.814-6.355-1.466-11.406-.815-4.236-.815-4.236-2.281-11.242-1.466-5.866-1.466-5.866-3.096-11.08-1.466-4.562-1.466-4.562-3.096-8.635-1.466-3.748-1.466-3.748-3.095-7.007-.815-1.629-1.467-3.095-2.281-4.725-.163-.489-.326-.977-.326-1.466-.163-.652-.163-1.14-.163-1.792.163-1.467.163-1.467.326-2.119.325-.977.325-.977.977-2.28.326-.327.489-.652.815-.978 1.63-1.304 1.63-1.304 2.118-1.467.489-.163.978-.326 1.466-.651.815-.163 1.467-.163 2.282-.326.488.163.977.163 1.629.163.489.163.815.325 1.303.325 1.793.978 1.793.978 2.282 1.467l.814.815.978 1.466c.652.978.977 2.118 1.63 3.096.977 2.28 1.954 4.562 3.095 6.843 1.466 3.748 1.466 3.748 3.096 7.984.489 1.466.977 3.096 1.466 4.562.489 1.792.978 3.422 1.467 5.214l1.466 5.866 1.466 6.843c.49 2.933.978 5.703 1.467 8.636.163 1.792.489 3.584.814 5.376.815 7.17.815 7.17 1.141 12.384.163 2.444.163 4.888.326 7.332v5.865c-.163 1.956-.163 4.074-.163 6.192-.163 1.955-.326 4.073-.326 6.029-.326 3.421-.815 7.006-1.14 10.59-.326 1.63-.652 3.259-.815 5.051a791.126 791.126 0 0 0-1.467 8.147c-.651 2.281-.977 4.562-1.466 6.68-.489 1.956-.978 3.748-1.466 5.703-.49 1.63-.978 3.259-1.467 5.051-1.466 4.562-1.466 4.562-3.096 8.636-.814 1.792-1.466 3.747-2.28 5.703-1.467 3.421-1.467 3.421-3.096 6.354-.326.326-.49.815-.815 1.304-.163.162-.326.325-.489.325 0 .163 0 .163-.163.326h-.163c-.814.815-.814.815-1.792 1.304-.815.326-.815.326-1.955.814-.326.163-.652.163-1.14.163-.327.163-.816.163-1.304.163z"/><path d="M-66.092 468.173c-.814-.326-1.466-.489-2.28-.815-.49-.325-.978-.651-1.467-.814-.815-.652-.815-.652-1.467-1.467-.651-.814-.651-.814-.977-1.629-.163-.326-.326-.652-.326-.978-.163-.651-.163-.977-.326-1.629v-1.303c.163-1.141.163-1.141.652-2.445.489-.977.977-2.118 1.466-3.095.815-1.793 1.467-3.585 2.281-5.214 1.467-4.074 1.467-4.074 3.096-8.636.489-1.792.978-3.584 1.466-5.214.49-2.118.978-4.073 1.467-6.191.326-1.304.489-2.444.815-3.748.325-2.28.814-4.562 1.14-6.843.815-6.355.815-6.355 1.14-11.08.164-1.955.164-3.747.327-5.703v-8.472c-.163-2.444-.326-4.725-.326-7.17-.326-2.443-.49-4.887-.815-7.331-.326-1.793-.489-3.585-.815-5.214l-1.466-7.821c-.489-2.118-.978-4.074-1.467-6.192-.488-1.792-.977-3.421-1.466-5.214-.489-1.466-.978-3.096-1.466-4.562-1.467-4.073-1.467-4.073-3.096-7.495-.815-1.63-1.467-3.096-2.281-4.725-.326-.652-.652-1.304-.815-1.955-.163-1.304-.163-1.304-.163-2.281.163-.49.163-.815.163-1.304.163-.326.163-.815.326-1.303.326-.652.652-.978.815-1.63.163-.326.488-.652.651-.814.49-.326.815-.652 1.304-.978 1.466-.815 1.466-.815 2.281-1.14.652-.164.978-.164 1.63-.326h1.466c1.14.162 1.14.162 2.28.651.653.326 1.304.815 1.956 1.14.815.653.978.978 1.304 1.304 1.14 1.956 1.14 1.956 2.607 5.051l1.466 3.422c.978 2.607 1.955 5.214 3.096 7.82 1.466 4.563 1.466 4.563 3.096 9.614.488 1.955.977 4.073 1.466 6.029.489 2.444.978 4.725 1.466 7.169.163 1.466.49 2.933.815 4.4.326 2.932.815 5.865 1.14 8.635.164 2.28.326 4.562.652 6.68.163 2.281.163 4.562.326 6.843v5.703c-.163 1.955-.163 3.748-.163 5.866-.163 1.792-.326 3.584-.326 5.54-.325 2.28-.651 4.725-.814 7.006-.815 5.214-.815 5.214-1.467 9.613-.814 3.422-1.466 6.843-2.28 10.265-1.467 5.377-1.467 5.377-3.097 10.265-.488 1.466-.977 2.77-1.466 4.236-.815 1.955-1.466 3.748-2.281 5.703-.815 1.63-1.467 3.259-2.281 4.888l-1.467 2.444c-.325.326-.814.815-.977 1.14-.652.326-.978.652-1.63.978-.325.163-.977.326-1.466.652-.326.163-.652.163-.978.163-.814-.489-1.629-.489-2.444-.489zm-37.149-5.866l-31.447-31.446v-67.618l31.447-31.447v130.511zm-65.826-36.171v-58.168h18.249v58.168h-18.249z"/></g></svg>